<?xml version="1.0" standalone="no"?>
<!DOCTYPE svg PUBLIC "-//W3C//DTD SVG 20010904//EN"
 "http://www.w3.org/TR/2001/REC-SVG-20010904/DTD/svg10.dtd">
<svg version="1.0" xmlns="http://www.w3.org/2000/svg"
 width="209.000000pt" height="209.000000pt" viewBox="0 0 209.000000 209.000000"
 preserveAspectRatio="xMidYMid meet">

<g transform="translate(0.000000,209.000000) scale(0.100000,-0.100000)"
fill="#000000" stroke="none">
<path d="M1 1638 c1 -401 2 -445 14 -388 29 144 110 323 198 438 149 193 384
338 627 387 58 12 13 13 -387 14 l-453 1 1 -452z"/>
<path d="M1250 2075 c144 -29 323 -110 438 -198 193 -149 338 -384 387 -627
12 -58 13 -13 14 388 l1 452 -452 -1 c-401 -1 -445 -2 -388 -14z"/>
<path d="M800 1715 c-196 -98 -264 -139 -249 -148 2 -1 111 -55 242 -120 144
-72 237 -124 237 -133 0 -8 -93 -60 -237 -132 -131 -64 -240 -118 -242 -120
-15 -9 55 -50 256 -152 125 -63 226 -119 226 -125 -1 -5 -103 -62 -227 -126
-125 -64 -232 -121 -238 -127 -5 -5 -7 -15 -3 -21 12 -20 464 -241 492 -241
33 0 472 224 495 253 16 20 18 50 18 265 0 239 0 243 -22 265 -13 12 -125 74
-250 137 -125 63 -228 120 -228 125 0 6 106 63 235 128 170 85 235 122 235
135 0 23 -444 252 -486 251 -16 0 -129 -50 -254 -114z"/>
<path d="M1 453 l-1 -453 453 1 c400 1 445 2 387 14 -243 49 -478 194 -627
387 -88 115 -169 294 -198 438 -12 57 -13 13 -14 -387z"/>
<path d="M2076 850 c-14 -106 -86 -281 -165 -400 -46 -71 -150 -180 -223 -237
-115 -88 -294 -169 -438 -198 -57 -12 -13 -13 388 -14 l452 -1 0 450 c0 248
-2 450 -4 450 -2 0 -6 -22 -10 -50z"/>
</g>
</svg>
